<?xml version="1.0" encoding="UTF-8" standalone="no"?>
<!-- Generator: Adobe Illustrator 16.0.0, SVG Export Plug-In . SVG Version: 6.00 Build 0)  -->

<svg
   xmlns:dc="http://purl.org/dc/elements/1.1/"
   xmlns:cc="http://creativecommons.org/ns#"
   xmlns:rdf="http://www.w3.org/1999/02/22-rdf-syntax-ns#"
   xmlns:svg="http://www.w3.org/2000/svg"
   xmlns="http://www.w3.org/2000/svg"
   xmlns:sodipodi="http://sodipodi.sourceforge.net/DTD/sodipodi-0.dtd"
   xmlns:inkscape="http://www.inkscape.org/namespaces/inkscape"
   version="1.1"
   id="Layer_1"
   x="0px"
   y="0px"
   width="70px"
   height="70px"
   viewBox="0 0 70 70"
   enable-background="new 0 0 70 70"
   xml:space="preserve"
   sodipodi:docname="refresh.svg"
   inkscape:version="0.92.4 (5da689c313, 2019-01-14)"><metadata
   id="metadata17"><rdf:RDF><cc:Work
       rdf:about=""><dc:format>image/svg+xml</dc:format><dc:type
         rdf:resource="http://purl.org/dc/dcmitype/StillImage" /></cc:Work></rdf:RDF></metadata><defs
   id="defs15"><inkscape:path-effect
     effect="mirror_symmetry"
     start_point="67.132,7.742"
     end_point="67.132,62.676"
     center_point="67.132,35.209"
     id="path-effect3722"
     is_visible="true"
     mode="free"
     discard_orig_path="true"
     fuse_paths="false"
     oposite_fuse="false" /></defs><sodipodi:namedview
   pagecolor="#ffffff"
   bordercolor="#666666"
   borderopacity="1"
   objecttolerance="10"
   gridtolerance="10"
   guidetolerance="10"
   inkscape:pageopacity="0"
   inkscape:pageshadow="2"
   inkscape:window-width="1920"
   inkscape:window-height="989"
   id="namedview13"
   showgrid="false"
   inkscape:zoom="3.3714286"
   inkscape:cx="4.7457627"
   inkscape:cy="23.135593"
   inkscape:window-x="0"
   inkscape:window-y="27"
   inkscape:window-maximized="1"
   inkscape:current-layer="Layer_1" />
<g
   id="g10"
   inkscape:path-effect="#path-effect3722"
   transform="translate(-64.067797,-1.1864407)">
	<path
   d="m 121.213,42.684 -6.57,-8.994 c -0.447,-0.607 -0.514,-1.323 -0.173,-1.997 0.34,-0.672 1.03,-1.109 1.784,-1.109 h 4.16 c -1.611,-11 -10.739,-18.854 -21.732,-18.854 -7.715,0 -14.729,3.835 -18.767,10.422 -0.577,0.942 -1.808,1.188 -2.75,0.611 -0.941,-0.577 -1.237,-1.833 -0.66,-2.774 4.77,-7.783 13.06,-12.247 22.177,-12.247 13.202,0 24.126,9.842 25.768,22.842 h 4.946 c 0.754,0 1.444,0.438 1.784,1.109 0.341,0.674 0.274,1.592 -0.173,2.199 l -6.571,8.893 c -0.377,0.513 -0.975,0.791 -1.611,0.791 -0.636,0 -1.235,-0.38 -1.612,-0.892 z m 4.231,-8.101 h -5.238 l 2.619,3.564 z"
   id="path2"
   inkscape:original-d="m 13.051,42.684 6.57,-8.994 c 0.447,-0.607 0.514,-1.323 0.173,-1.997 -0.34,-0.672 -1.03,-1.109 -1.784,-1.109 h -4.16 c 1.611,-11 10.739,-18.854 21.732,-18.854 7.715,0 14.729,3.835 18.767,10.422 0.577,0.942 1.808,1.188 2.75,0.611 0.941,-0.577 1.237,-1.833 0.66,-2.774 C 52.989,12.206 44.699,7.742 35.582,7.742 22.38,7.742 11.456,17.584 9.814,30.584 H 4.868 c -0.754,0 -1.444,0.438 -1.784,1.109 -0.341,0.674 -0.274,1.592 0.173,2.199 l 6.571,8.893 c 0.377,0.513 0.975,0.791 1.611,0.791 0.636,0 1.235,-0.38 1.612,-0.892 z M 8.82,34.583 h 5.238 l -2.619,3.564 z"
   inkscape:connector-curvature="0" />
	<path
   d="m 82.189,24.851 c -0.471,-0.288 -0.619,-0.904 -0.33,-1.375 3.646,-5.949 9.982,-9.501 16.95,-9.501 7.049,0 13.632,3.789 17.181,9.888 0.277,0.478 0.116,1.09 -0.361,1.367 -0.158,0.092 -0.331,0.136 -0.502,0.136 -0.345,0 -0.68,-0.178 -0.865,-0.497 -3.191,-5.485 -9.112,-8.894 -15.452,-8.894 -6.267,0 -11.966,3.194 -15.245,8.546 -0.289,0.47 -0.905,0.618 -1.376,0.33 z"
   id="path4"
   inkscape:original-d="m 52.075,24.851 c 0.471,-0.288 0.619,-0.904 0.33,-1.375 -3.646,-5.949 -9.982,-9.501 -16.95,-9.501 -7.049,0 -13.632,3.789 -17.181,9.888 -0.277,0.478 -0.116,1.09 0.361,1.367 0.158,0.092 0.331,0.136 0.502,0.136 0.345,0 0.68,-0.178 0.865,-0.497 3.191,-5.485 9.112,-8.894 15.452,-8.894 6.267,0 11.966,3.194 15.245,8.546 0.289,0.47 0.905,0.618 1.376,0.33 z"
   inkscape:connector-curvature="0" />
	<path
   d="m 114.984,45.48 c 0.288,-0.47 0.903,-0.618 1.375,-0.33 0.471,0.288 0.619,0.904 0.33,1.375 -3.646,5.948 -9.981,9.5 -16.95,9.5 -7.571,0 -14.595,-4.406 -17.893,-11.225 -0.24,-0.497 -0.032,-1.096 0.465,-1.336 0.5,-0.238 1.096,-0.031 1.336,0.465 2.966,6.133 9.282,10.096 16.092,10.096 6.267,0 11.965,-3.194 15.245,-8.545 z"
   id="path6"
   inkscape:original-d="m 19.28,45.48 c -0.288,-0.47 -0.903,-0.618 -1.375,-0.33 -0.471,0.288 -0.619,0.904 -0.33,1.375 3.646,5.948 9.981,9.5 16.95,9.5 7.571,0 14.595,-4.406 17.893,-11.225 0.24,-0.497 0.032,-1.096 -0.465,-1.336 -0.5,-0.238 -1.096,-0.031 -1.336,0.465 -2.966,6.133 -9.282,10.096 -16.092,10.096 -6.267,0 -11.965,-3.194 -15.245,-8.545 z"
   inkscape:connector-curvature="0" />
	<path
   d="m 67.683,34.224 6.429,-8.753 c 0.377,-0.513 0.975,-0.829 1.611,-0.829 0.636,0 1.234,0.277 1.611,0.79 l 6.57,8.889 c 0.447,0.607 0.514,1.507 0.173,2.179 -0.34,0.674 -1.03,1.084 -1.784,1.084 h -4.401 c 0.381,11 10.087,21.079 21.974,21.079 7.715,0 14.73,-4.03 18.767,-10.616 0.576,-0.942 1.808,-1.287 2.75,-0.709 0.941,0.577 1.237,1.784 0.66,2.726 -4.769,7.782 -13.06,12.612 -22.177,12.612 -14.092,0 -25.592,-11.092 -25.974,-25.092 h -4.74 -0.02 c -1.105,0 -2,-0.886 -2,-1.99 0,-0.535 0.209,-1.012 0.551,-1.37 z m 10.659,-0.641 -2.619,-3.564 -2.619,3.564 z"
   id="path8"
   inkscape:original-d="m 66.581,34.224 -6.429,-8.753 c -0.377,-0.513 -0.975,-0.829 -1.611,-0.829 -0.636,0 -1.234,0.277 -1.611,0.79 l -6.57,8.889 c -0.447,0.607 -0.514,1.507 -0.173,2.179 0.34,0.674 1.03,1.084 1.784,1.084 h 4.401 c -0.381,11 -10.087,21.079 -21.974,21.079 -7.715,0 -14.73,-4.03 -18.767,-10.616 -0.576,-0.942 -1.808,-1.287 -2.75,-0.709 -0.941,0.577 -1.237,1.784 -0.66,2.726 4.769,7.782 13.06,12.612 22.177,12.612 14.092,0 25.592,-11.092 25.974,-25.092 h 4.74 c 0.008,0 0.016,0 0.02,0 1.105,0 2,-0.886 2,-1.99 0,-0.535 -0.209,-1.012 -0.551,-1.37 z m -10.659,-0.641 2.619,-3.564 2.619,3.564 z"
   inkscape:connector-curvature="0" />
</g>
</svg>